<svg width="30" height="30" viewBox="0 0 30 30" fill="none" xmlns="http://www.w3.org/2000/svg">
<path d="M26.2438 8.62496C26.2013 8.19746 25.9425 7.82246 25.5588 7.63121L15.5588 2.63121C15.2075 2.45496 14.7925 2.45496 14.44 2.63121L4.44005 7.63121C4.05755 7.82371 3.7988 8.19871 3.7563 8.62496C3.74255 8.75871 2.55505 22.0837 14.4925 27.3925C14.6538 27.465 14.8263 27.5 15 27.5C15.1738 27.5 15.3463 27.465 15.5075 27.3925C27.445 22.0837 26.2575 8.75996 26.2438 8.62496ZM15 24.8712C6.5388 20.7812 6.1388 12.0525 6.20755 9.54371L15 5.14746L23.7863 9.54121C23.8325 12.0275 23.3763 20.8137 15 24.8712Z" fill="#5466EF"/>
<path d="M13.75 15.7325L10.8837 12.8662L9.11621 14.6337L13.75 19.2675L20.8837 12.1337L19.1162 10.3662L13.75 15.7325Z" fill="#5466EF"/>
</svg>
