<svg width="30" height="30" viewBox="0 0 30 30" fill="none" xmlns="http://www.w3.org/2000/svg">
<path d="M5 13.75H12.5C13.1912 13.75 13.75 13.19 13.75 12.5V5C13.75 4.31 13.1912 3.75 12.5 3.75H5C4.30875 3.75 3.75 4.31 3.75 5V12.5C3.75 13.19 4.30875 13.75 5 13.75ZM6.25 6.25H11.25V11.25H6.25V6.25ZM25 3.75H17.5C16.8088 3.75 16.25 4.31 16.25 5V12.5C16.25 13.19 16.8088 13.75 17.5 13.75H25C25.6912 13.75 26.25 13.19 26.25 12.5V5C26.25 4.31 25.6912 3.75 25 3.75ZM23.75 11.25H18.75V6.25H23.75V11.25ZM12.5 26.25C13.1912 26.25 13.75 25.6912 13.75 25V17.5C13.75 16.8088 13.1912 16.25 12.5 16.25H5C4.30875 16.25 3.75 16.8088 3.75 17.5V25C3.75 25.6912 4.30875 26.25 5 26.25H12.5ZM6.25 18.75H11.25V23.75H6.25V18.75ZM22.5 17.5H20V20H17.5V22.5H20V25H22.5V22.5H25V20H22.5V17.5Z" fill="#5466EF"/>
</svg>
