<svg width="260" height="51" viewBox="0 0 260 51" fill="#000" xmlns="http://www.w3.org/2000/svg">
<path fill-rule="evenodd" clip-rule="evenodd" d="M23.0626 0C22.8892 3.01721 22.7158 6.03442 22.5423 9.15566C21.0164 9.0863 19.5598 9.05162 17.9992 8.98226C17.8952 7.07483 17.7911 5.23676 17.6871 3.32933C15.3288 3.32933 13.0052 3.32933 10.6469 3.32933C10.6469 7.8378 10.6469 12.3116 10.6469 16.8201C11.6527 16.8201 12.6584 16.8201 13.6988 16.8201C13.9416 15.849 14.1843 14.878 14.4271 13.8375C15.4675 13.8375 16.5079 13.8375 17.583 13.8375C17.583 16.9588 17.583 20.0107 17.583 23.1319C16.5773 23.1319 15.5716 23.1319 14.4965 23.1319C14.219 22.1955 13.9416 21.1551 13.6988 20.1147C12.6931 20.1147 11.722 20.1147 10.6816 20.1147C10.6816 24.9006 10.6816 29.6519 10.6816 34.4378C13.0399 34.4378 15.3635 34.4378 17.7564 34.4378C17.9645 32.3916 18.2073 30.3802 18.45 28.23C20.0454 28.2993 21.5713 28.334 23.2013 28.4034C23.34 31.594 23.444 34.7152 23.5828 37.9058C15.8143 37.9058 8.11525 37.9058 0.416166 37.9058C0.416166 36.7961 0.416166 35.721 0.416166 34.5765C1.52594 34.3684 2.56636 34.195 3.67614 34.0216C3.67614 23.9296 3.67614 13.8375 3.67614 3.71082C2.39296 3.5721 1.21382 3.43337 0 3.29465C0 2.18487 0 1.10978 0 0C7.69908 0 15.3635 0 23.0626 0Z" />
<path fill-rule="evenodd" clip-rule="evenodd" d="M105.082 50.7376C105.151 49.8012 105.186 48.9688 105.255 48.1365C106.087 47.9631 106.885 47.7897 107.717 47.5816C107.717 36.8307 107.717 26.0797 107.717 15.2594C106.781 15.1206 105.81 14.9819 104.804 14.8085C104.804 13.9415 104.804 13.1092 104.804 12.1034C107.336 11.7566 109.868 11.4098 112.503 11.0283C112.781 12.0341 113.023 12.9358 113.301 13.9068C113.405 13.8028 113.509 13.7334 113.613 13.6294C115.486 11.4792 117.913 10.7162 120.688 10.9937C124.156 11.3405 126.063 13.5253 127.034 16.6466C127.451 18.0338 127.763 19.5251 127.867 20.9817C128.11 23.9642 128.144 26.9814 127.555 29.9639C127.347 31.0737 127.034 32.1488 126.618 33.1892C125.266 36.3104 122.838 37.9751 119.474 38.2526C117.74 38.3913 116.075 38.2526 114.48 37.5243C114.376 37.4896 114.272 37.4549 114.099 37.4202C114.099 40.8189 114.099 44.1483 114.099 47.5816C114.931 47.755 115.763 47.9284 116.734 48.1365C116.665 49.0035 116.63 49.8359 116.561 50.7376C112.746 50.7376 108.966 50.7376 105.082 50.7376ZM114.064 33.8481C116.11 34.7151 118.087 34.7498 120.133 34.0562C120.549 33.9175 120.757 33.6747 120.861 33.2932C121.104 32.2875 121.416 31.2818 121.555 30.276C122.006 27.1895 121.936 24.0682 121.728 20.947C121.659 19.9066 121.451 18.8315 121.139 17.8257C120.445 15.6409 118.954 14.7738 116.665 15.1553C116.561 15.19 116.457 15.2247 116.318 15.2247C114.931 15.5021 114.064 16.5425 114.064 17.9298C114.064 22.9931 114.064 28.0218 114.064 33.0852C114.064 33.2932 114.064 33.536 114.064 33.8481Z" />
<path fill-rule="evenodd" clip-rule="evenodd" d="M190.881 34.6114C191.852 34.8194 192.684 34.9928 193.586 35.1662C193.551 36.1026 193.482 36.9696 193.447 37.906C190.499 37.906 187.586 37.906 184.604 37.906C184.604 37.6979 184.569 37.5245 184.569 37.3164C184.569 31.4554 184.604 25.5944 184.569 19.7334C184.569 18.9358 184.396 18.1381 184.153 17.3751C183.875 16.4734 183.113 15.9532 182.176 15.7452C181.274 15.5371 180.373 15.6064 179.54 15.9532C178.812 16.2654 178.223 16.8549 178.223 17.7219C178.223 23.2708 178.223 28.8197 178.223 34.3686C178.223 34.4379 178.257 34.4726 178.292 34.6114C179.09 34.7848 179.922 34.9582 180.893 35.1316C180.824 36.0333 180.789 36.9349 180.72 37.906C176.87 37.906 173.125 37.906 169.344 37.906C169.344 36.9696 169.344 36.1026 169.344 35.1662C170.211 34.9928 171.009 34.8194 171.876 34.6114C171.876 28.2648 171.876 21.953 171.876 15.5371C170.94 15.433 169.969 15.329 168.963 15.1903C168.963 14.2539 168.963 13.3522 168.963 12.3811C171.425 12.0343 173.888 11.6875 176.454 11.306C176.697 12.1384 176.905 12.9707 177.113 13.7337C177.668 13.3175 178.257 12.7973 178.916 12.3811C181.378 10.8205 184.049 10.5431 186.789 11.5141C189.078 12.3465 190.291 14.1498 190.673 16.5081C190.777 17.1671 190.812 17.826 190.812 18.4849C190.812 23.5136 190.812 28.5423 190.812 33.5709C190.881 33.9524 190.881 34.2645 190.881 34.6114Z" />
<path fill-rule="evenodd" clip-rule="evenodd" d="M34.7148 34.6111C35.6165 34.7845 36.4488 34.958 37.3158 35.1314C37.2465 36.0677 37.2118 36.9347 37.1424 37.8711C33.2929 37.8711 29.5474 37.8711 25.6632 37.8711C25.6979 36.9694 25.7672 36.1024 25.8019 35.1314C26.6342 34.958 27.4319 34.7845 28.2295 34.6111C28.4029 33.9869 28.4723 16.4732 28.2642 15.5022C27.3279 15.3981 26.3568 15.2941 25.3857 15.1901C25.3857 14.2537 25.3857 13.3867 25.3857 12.3809C27.8481 12.0341 30.3104 11.6873 32.9114 11.3058C33.1542 12.1382 33.3623 12.9358 33.605 13.8028C33.8131 13.6294 34.0559 13.3867 34.2986 13.1786C36.6916 11.1324 39.466 10.5429 42.4832 11.2712C45.119 11.8954 46.6102 13.6988 47.1304 16.2998C47.2692 16.9588 47.3038 17.6871 47.3038 18.3807C47.3038 23.444 47.3038 28.5074 47.3038 33.536C47.3038 33.8829 47.3038 34.2297 47.3038 34.5765C48.2402 34.7499 49.0725 34.9233 50.0089 35.0967C49.9742 35.5475 49.9396 35.9984 49.9396 36.4492C49.9396 36.9001 49.9396 37.3509 49.9396 37.8711C46.957 37.8711 44.0786 37.8711 41.0613 37.8711C41.0613 37.5243 41.0613 37.2122 41.0613 36.8654C41.0613 31.3165 41.0613 25.7676 41.0613 20.2187C41.0613 19.5598 40.992 18.9009 40.8879 18.2419C40.6452 16.716 39.7435 15.7796 38.1829 15.6409C37.0731 15.5369 35.9286 15.5715 35.0963 16.5773C34.7842 16.9934 34.6108 17.3749 34.6108 17.8951C34.6454 22.1262 34.6108 26.3225 34.6108 30.5535C34.6108 31.5939 34.6108 32.6344 34.6108 33.6748C34.6801 34.0216 34.6801 34.299 34.7148 34.6111Z" />
<path fill-rule="evenodd" clip-rule="evenodd" d="M231.493 14.8431C230.522 14.7391 229.586 14.6697 228.58 14.5657C228.58 13.768 228.58 12.9704 228.58 12.1034C231.424 11.7913 234.268 11.4444 237.181 11.1323C237.528 12.2074 237.909 13.1785 237.909 14.2883C237.874 20.7388 237.909 27.1894 237.909 33.6053C237.909 33.9521 237.909 34.2989 237.909 34.6457C238.845 34.8191 239.678 34.9925 240.579 35.2006C240.475 36.137 240.406 37.004 240.302 37.9404C237.84 37.9404 235.412 37.9404 232.915 37.9404C232.707 37.2815 232.464 36.5878 232.221 35.8249C231.979 35.9983 231.805 36.137 231.632 36.2757C228.615 39.0155 224.557 38.738 221.991 37.4895C219.979 36.5185 218.904 34.8538 218.557 32.7036C218.419 32.01 218.384 31.2817 218.384 30.5534C218.384 25.6981 218.384 20.8429 218.384 15.9876C218.384 15.6408 218.384 15.294 218.384 14.9125C217.378 14.8085 216.442 14.7044 215.471 14.6004C215.471 13.8027 215.471 13.0398 215.471 12.1381C218.28 11.8259 221.089 11.4791 224.002 11.1323C224.245 12.1034 224.661 12.9704 224.661 13.9761C224.661 19.0742 224.661 24.1375 224.661 29.2356C224.661 29.9292 224.696 30.6228 224.8 31.3164C225.043 33.1891 226.256 34.2989 228.129 34.3336C228.788 34.3336 229.447 34.2296 230.106 34.0562C230.799 33.8828 231.701 32.6689 231.701 31.9753C231.701 26.3571 231.701 20.7735 231.701 15.1553C231.597 15.0512 231.562 14.9819 231.493 14.8431Z" />
<path fill-rule="evenodd" clip-rule="evenodd" d="M90.7932 26.3223C90.7932 28.4725 91.14 30.3799 92.2844 32.0793C93.3248 33.5705 94.7467 34.3682 96.5848 34.4029C98.3188 34.4375 99.9488 34.0907 101.544 33.4318C101.752 33.3278 101.96 33.2584 102.272 33.1544C102.619 33.952 102.966 34.7497 103.348 35.6167C102.862 35.9288 102.446 36.3103 101.926 36.5531C98.735 38.2871 95.371 38.8766 91.7989 37.8362C88.8164 36.9692 86.8743 34.9231 85.5911 32.1833C84.1692 29.1661 83.8571 25.9755 84.1345 22.7155C84.3079 20.7041 84.7241 18.7966 85.5911 16.9586C86.9783 13.976 89.1285 11.9299 92.4231 11.2363C95.5444 10.5774 98.4575 10.9588 100.885 13.2824C102.307 14.6697 103.105 16.4037 103.66 18.3111C104.215 20.2532 104.423 22.23 104.423 24.2068C104.423 24.8657 104.041 25.5247 103.833 26.1836C99.4633 26.2183 95.1976 26.2529 90.7932 26.3223ZM98.7003 22.8889C98.631 22.0913 98.5963 21.4324 98.5269 20.7734C98.3535 19.2128 98.0414 17.6869 97.2437 16.2996C96.3767 14.7737 95.0935 14.3228 93.4289 14.8431C92.7699 15.0511 92.3538 15.4326 92.0763 16.0569C91.2093 18.2071 90.7932 20.4266 90.6891 22.7155C90.6891 22.8889 90.7585 23.0277 90.7932 23.2357C93.3942 23.1317 95.9952 23.0277 98.7003 22.8889Z" />
<path fill-rule="evenodd" clip-rule="evenodd" d="M214.291 26.1491C209.852 26.2185 205.587 26.2531 201.252 26.3225C201.148 27.2589 201.286 28.1259 201.46 28.9929C201.702 30.3108 202.188 31.5246 203.09 32.565C204.095 33.7441 205.344 34.3337 206.87 34.3684C208.534 34.4378 210.13 34.1256 211.69 33.5014C212.003 33.3627 212.315 33.2586 212.731 33.1199C213.078 33.9175 213.424 34.7152 213.806 35.6169C213.667 35.7209 213.529 35.7903 213.39 35.8943C210.615 37.8364 207.494 38.5994 204.199 38.2179C200.107 37.7671 197.367 35.3741 195.876 31.6286C193.969 26.808 194.038 21.9181 196.015 17.0975C197.298 14.0109 199.518 11.8954 202.882 11.1671C205.517 10.6122 208.049 10.7856 210.338 12.3463C211.968 13.456 212.974 15.086 213.667 16.8894C214.569 19.213 214.916 21.6406 214.846 24.103C214.812 24.7966 214.5 25.4555 214.291 26.1491ZM209.089 22.8891C209.02 21.0858 208.812 19.3864 208.292 17.7564C208.014 16.9241 207.633 16.1958 207.078 15.5022C206.037 14.1843 202.882 14.4271 202.396 16.2652C202.015 17.7217 201.494 19.1783 201.286 20.7043C201.182 21.5366 201.009 22.3343 201.182 23.2706C203.818 23.1319 206.384 23.0279 209.089 22.8891Z" />
<path fill-rule="evenodd" clip-rule="evenodd" d="M167.889 26.149C163.485 26.2184 159.184 26.2531 154.849 26.3224C154.884 28.6807 155.231 30.7962 156.722 32.5649C157.658 33.7094 158.907 34.3336 160.398 34.3683C162.097 34.4377 163.727 34.1602 165.323 33.5013C165.635 33.3626 165.947 33.2585 166.328 33.0851C166.675 33.8828 167.022 34.6804 167.404 35.5475C167.091 35.7555 166.814 35.9983 166.502 36.2064C163.519 38.0791 160.225 38.7381 156.791 38.0445C153.566 37.4202 151.312 35.4087 149.855 32.5303C148.364 29.5824 147.948 26.4265 148.191 23.2012C148.329 21.0163 148.746 18.9008 149.682 16.924C150.757 14.6004 152.352 12.7277 154.78 11.7566C157.624 10.6468 160.537 10.5081 163.311 12.0341C165.149 13.0398 166.294 14.6351 167.091 16.5078C168.132 18.9355 168.479 21.5018 168.479 24.1376C168.479 24.7965 168.097 25.4901 167.889 26.149ZM162.722 22.8891C162.652 22.022 162.618 21.2591 162.514 20.4961C162.34 19.0742 162.028 17.6523 161.3 16.3691C160.363 14.7045 158.942 14.2536 157.173 14.9472C156.722 15.1206 156.41 15.3981 156.202 15.8489C155.439 17.5483 155.057 19.3516 154.815 21.1897C154.745 21.8486 154.711 22.4729 154.641 23.2705C157.416 23.1318 160.017 23.0278 162.722 22.8891Z" />
<path fill-rule="evenodd" clip-rule="evenodd" d="M73.6263 11.3059C73.8344 12.1035 74.0078 12.8665 74.2159 13.6641C74.528 13.4907 74.8401 13.2827 75.1523 13.1093C76.9903 12.0342 78.9671 11.5486 81.0827 11.3059C82.0884 11.2018 82.8167 11.514 83.4062 12.381C83.1635 14.6699 82.886 17.0282 82.6086 19.4558C81.152 19.3864 79.7995 19.3518 78.3429 19.2824C78.1695 17.9992 78.0308 16.7854 77.892 15.5022C76.8516 15.5716 75.9846 15.8837 75.187 16.4386C75.187 22.5077 75.187 28.5421 75.187 34.6459C76.054 34.854 76.8863 35.0274 77.8227 35.2354C77.788 36.1371 77.7186 36.9695 77.684 37.9058C73.8691 37.9058 70.1236 37.9058 66.3434 37.9058C66.3434 37.0388 66.3434 36.1718 66.3434 35.2701C67.1411 35.062 67.9387 34.854 68.7017 34.6806C68.7017 28.2993 68.7017 21.9528 68.7017 15.5716C67.7653 15.4675 66.8983 15.3635 65.9619 15.2594C65.9619 14.3231 65.9619 13.4214 65.9619 12.4503C68.4589 12.0342 70.9906 11.6874 73.6263 11.3059Z" />
<path fill-rule="evenodd" clip-rule="evenodd" d="M242.138 37.9062C242.173 36.9699 242.208 36.1028 242.277 35.2358C243.075 35.0277 243.803 34.8543 244.635 34.6463C244.635 28.2997 244.635 21.9879 244.635 15.5373C243.768 15.4332 242.867 15.3292 241.861 15.1905C241.861 14.7049 241.861 14.2541 241.861 13.8033C241.861 13.3524 241.861 12.9016 241.861 12.3814C244.497 12.0345 247.028 11.6877 249.595 11.3063C249.803 12.1039 249.976 12.8669 250.149 13.5258C251.225 13.0403 252.3 12.416 253.444 12.0345C254.554 11.6531 255.733 11.5143 256.912 11.2716C257.918 11.0635 258.716 11.3756 259.34 12.312C259.097 14.5662 258.82 16.9245 258.542 19.3521C257.12 19.2828 255.733 19.2481 254.311 19.1787C254.138 17.8956 253.999 16.6471 253.826 15.2598C252.889 15.572 252.022 15.8841 251.155 16.1962C251.155 22.3693 251.155 28.4038 251.155 34.5422C251.988 34.7156 252.855 34.9237 253.791 35.1318C253.722 36.0335 253.687 36.9005 253.618 37.8022C249.733 37.9062 245.988 37.9062 242.138 37.9062Z" />
<path fill-rule="evenodd" clip-rule="evenodd" d="M141.879 15.3291C140.874 15.7106 140.007 16.0227 139.174 16.3348C139.174 22.508 139.174 28.5771 139.174 34.6462C140.076 34.8542 140.943 35.0276 141.845 35.2357C141.775 36.1374 141.706 37.0044 141.637 37.9061C137.856 37.9061 134.111 37.9061 130.296 37.9061C130.296 37.0391 130.296 36.2068 130.296 35.2704C131.094 35.0623 131.891 34.8542 132.689 34.6462C132.689 28.2996 132.689 21.9531 132.689 15.5372C131.753 15.4331 130.851 15.3291 129.915 15.225C129.915 14.2887 129.915 13.4217 129.915 12.4159C132.446 12.0691 134.943 11.7223 137.614 11.3408C137.822 12.1038 138.065 12.8668 138.273 13.6297C139.036 13.2483 139.729 12.8321 140.492 12.4853C141.879 11.8264 143.405 11.5836 144.931 11.3408C145.937 11.2021 146.735 11.4449 147.394 12.3812C147.151 14.6355 146.873 16.9938 146.631 19.4561C145.209 19.4214 143.822 19.352 142.365 19.3174C142.192 17.9648 142.053 16.751 141.879 15.3291Z" />
<path fill-rule="evenodd" clip-rule="evenodd" d="M59.0952 6.27686C59.0952 8.08024 59.0952 9.81427 59.0952 11.6523C60.6558 11.6523 62.1818 11.6523 63.8117 11.6523C63.7077 12.8315 63.6037 13.9066 63.4996 15.0163C62.043 15.1897 60.6905 15.3285 59.2686 15.5019C59.2339 15.7446 59.1992 15.9527 59.1992 16.1955C59.1992 21.3629 59.1992 26.5303 59.2339 31.6977C59.2339 32.0445 59.2339 32.3913 59.2686 32.7381C59.4073 33.8132 60.1703 34.5068 61.2454 34.5415C62.1124 34.5762 62.9794 34.5415 63.9505 34.5415C64.0545 35.5125 64.1239 36.4142 64.2279 37.3159C63.5343 37.7668 62.806 37.9055 62.0777 38.0442C60.4824 38.3563 58.8871 38.4604 57.2571 38.1829C54.7948 37.7668 53.1648 36.1021 52.8874 33.6051C52.818 33.0849 52.818 32.5647 52.818 32.0445C52.818 26.8424 52.818 21.6403 52.818 16.4382C52.818 16.1261 52.7833 15.814 52.7486 15.5019C51.7429 15.3285 50.8065 15.1897 49.7661 15.0163C49.8008 13.9413 49.8702 12.9008 49.9048 11.7217C51.0146 11.6523 52.0897 11.6177 53.2689 11.5483C53.7544 9.88363 54.2746 8.18428 54.7601 6.48494C56.2167 6.41558 57.6039 6.34622 59.0952 6.27686Z" />
</svg>
