<svg width="147" height="37" viewBox="0 0 147 37" fill="none" xmlns="http://www.w3.org/2000/svg">
<path fill-rule="evenodd" clip-rule="evenodd" d="M89.1384 10.4266C86.7823 10.4266 84.9331 10.9317 83.0839 11.9407C83.0839 6.55938 83.0839 1.68209 83.251 0L71.983 2.01813V3.02815L73.1601 3.19617C74.6752 3.5322 75.1802 4.37325 75.5153 6.39137C75.8513 10.4276 75.6843 31.9539 75.5153 35.4861C78.5425 36.1592 81.7368 36.6642 84.9331 36.6642C93.8468 36.6642 99.2283 31.1139 99.2283 22.3683C99.2283 15.472 94.8559 10.4266 89.1384 10.4266ZM85.2691 34.8121C84.598 34.8121 83.755 34.8121 83.251 34.6451C83.0839 32.2909 82.9149 22.3674 83.0839 13.6228C84.091 13.2858 84.7641 13.1178 85.6071 13.1178C89.3064 13.1178 91.3246 17.4901 91.3246 22.8724C91.3236 29.5998 88.8004 34.8121 85.2691 34.8121ZM29.5995 0.673032H0V2.18711L1.68213 2.35513C3.86832 2.69116 4.70939 4.03624 5.04445 7.23242C5.55045 13.2868 5.38243 24.2184 5.04445 29.4327C4.70842 32.627 3.86832 34.141 1.68213 34.3091L0 34.6451V35.9902H19.0046V34.6451L16.9855 34.3091C14.7993 34.1401 13.9582 32.627 13.6222 29.4327C13.4541 27.2456 13.2861 23.7125 13.2861 19.3402L17.3225 19.5082C19.8457 19.5082 21.0218 21.5263 21.5278 24.3865H23.0409V12.4448H21.5278C21.0218 15.3039 19.8466 17.3211 17.3225 17.3211L13.2861 17.4891C13.2861 11.7708 13.4541 6.38943 13.6222 3.19423H19.5077C24.05 3.19423 26.4042 6.0534 28.0854 11.0987L29.7675 10.5937L29.5995 0.673032Z" fill="black"/>
<path fill-rule="evenodd" clip-rule="evenodd" d="M39.186 10.0907C47.5956 10.0907 51.8 15.8091 51.8 23.3766C51.8 30.608 47.0916 36.6634 38.6809 36.6634C30.2722 36.6634 26.0679 30.946 26.0679 23.3766C26.0688 16.1451 30.7773 10.0907 39.186 10.0907ZM38.6819 11.7728C34.9826 11.7728 33.9735 16.8181 33.9735 23.3775C33.9735 29.7689 35.6547 34.9813 39.0199 34.9813C42.8863 34.9813 43.8963 29.9359 43.8963 23.3775C43.8963 16.9861 42.2142 11.7728 38.6819 11.7728ZM101.415 23.5446C101.415 16.6501 105.787 10.0907 114.365 10.0907C121.429 10.0907 124.792 15.304 124.792 22.1995H109.151C108.984 28.4238 112.011 32.9631 118.066 32.9631C120.757 32.9631 122.103 32.2921 123.784 31.114L124.457 31.9541C122.775 34.3102 119.074 36.6643 114.365 36.6643C106.797 36.6634 101.415 31.282 101.415 23.5446ZM109.151 20.3503L117.055 20.1813C117.055 16.8181 116.552 11.7728 113.692 11.7728C110.833 11.7728 109.319 16.4811 109.151 20.3503ZM144.806 11.4368C142.788 10.5948 140.095 10.0907 137.068 10.0907C130.847 10.0907 126.978 13.79 126.978 18.1632C126.978 22.5355 129.836 24.3866 133.874 25.7317C138.077 27.2458 139.255 28.4228 139.255 30.44C139.255 32.4601 137.741 34.3092 135.05 34.3092C131.856 34.3092 129.501 32.4601 127.65 27.4118L126.472 27.7498L126.641 35.1493C128.659 35.9894 132.361 36.6634 135.555 36.6634C142.114 36.6634 146.32 33.3001 146.32 28.0858C146.32 24.5536 144.469 22.5365 140.096 20.8544C135.388 19.0052 133.706 17.8272 133.706 15.641C133.706 13.4549 135.22 11.9408 137.238 11.9408C140.265 11.9408 142.283 13.79 143.798 18.3322L144.974 17.9962L144.806 11.4368ZM73.6638 10.7637C70.8055 9.08262 65.7592 9.92269 63.0689 15.9771L63.2369 10.0907L51.968 12.2768V13.2859L53.1461 13.4539C54.6602 13.6229 55.3313 14.463 55.5003 16.6501C55.8373 20.6864 55.6693 27.7498 55.5003 31.282C55.3323 33.3001 54.6602 34.3092 53.1461 34.4762L51.968 34.6452V35.9903H67.6093V34.6452L65.5911 34.4762C63.91 34.3092 63.4049 33.3001 63.2369 31.282C62.9009 28.0858 62.9009 21.6954 63.0689 17.6592C63.91 16.4821 67.6093 15.473 70.9726 17.6592L73.6638 10.7637Z" fill="black"/>
</svg>
