<svg width="26" height="26" viewBox="0 0 26 26" fill="none" xmlns="http://www.w3.org/2000/svg">
<path d="M13 0.5C6.1075 0.5 0.5 6.1075 0.5 13C0.5 19.8925 6.1075 25.5 13 25.5C19.8925 25.5 25.5 19.8925 25.5 13C25.5 6.1075 19.8925 0.5 13 0.5ZM22.9138 11.75H19.4588C19.3138 9.04375 18.5463 6.375 17.2188 3.94625C20.2663 5.3725 22.4775 8.285 22.9138 11.75ZM13.6625 3.03375C14.9563 4.73875 16.6963 7.75875 16.9463 11.75H9.2875C9.46125 8.505 10.53 5.465 12.3513 3.0325C12.5663 3.02 12.7813 3 13 3C13.2238 3 13.4425 3.02 13.6625 3.03375ZM8.86 3.90875C7.63 6.2725 6.92 8.9525 6.7875 11.75H3.08625C3.52625 8.255 5.77125 5.32125 8.86 3.90875ZM3.08625 14.25H6.80375C6.97375 17.2238 7.635 19.8475 8.74875 22.0375C5.7175 20.605 3.52 17.7025 3.08625 14.25ZM12.3125 22.9663C10.5613 20.8438 9.5275 17.87 9.30125 14.25H16.9425C16.6825 17.7163 15.5463 20.745 13.6888 22.965C13.4613 22.98 13.2338 23 13 23C12.7675 23 12.5413 22.98 12.3125 22.9663ZM17.3263 22.0013C18.52 19.7588 19.2488 17.125 19.44 14.25H22.9125C22.4838 17.6738 20.3175 20.5588 17.3263 22.0013Z" fill="#5466EF"/>
</svg>
