<svg width="40" height="26" viewBox="0 0 40 26" fill="none" xmlns="http://www.w3.org/2000/svg">
<path d="M38 0H2C0.895431 0 0 0.89543 0 2V24C0 25.1046 0.895431 26 2 26H38C39.1046 26 40 25.1046 40 24V2C40 0.895431 39.1046 0 38 0Z" fill="#DE2910"/>
<path d="M19.9983 12.9963C15.3199 11.0686 17.3938 5.12777 21.868 5.42639C20.9629 5.87996 20.8317 6.72629 21.3486 7.5103C21.9275 8.38805 21.2953 9.80041 20.5128 10.1436C19.2268 10.7079 18.9693 12.2127 19.9983 12.9963Z" fill="white"/>
<path d="M19.7451 8.70668L19.482 9.10941L19.3867 8.6408L18.9121 8.52123L19.3399 8.28768L19.31 7.81104L19.6694 8.13558L20.1252 7.96039L19.9203 8.39414L20.2315 8.7627L19.7451 8.70668Z" fill="#DE2910"/>
<path d="M20.0249 12.9464C19.4591 12.6633 19.0029 12.073 18.8041 11.3677C18.5768 10.5587 18.7076 9.68888 19.1634 8.98276L19.0652 8.92236C18.5923 9.65594 18.4567 10.5579 18.6925 11.3975C18.9027 12.1438 19.3687 12.7451 19.972 13.047L20.0249 12.9464Z" fill="#DE2910"/>
<path d="M20.1258 13.018C20.5121 7.93825 26.7456 8.07311 27.8324 12.4499C27.1281 11.7246 26.2903 11.8626 25.7095 12.6018C25.0592 13.4295 23.5347 13.2642 22.972 12.6219C22.0467 11.5665 20.5497 11.7887 20.1258 13.018Z" fill="white"/>
<path d="M24.0896 11.4413L23.6291 11.3147L24.0421 11.0771L24.0096 10.5848L24.3609 10.9221L24.8015 10.7448L24.6053 11.1906L24.9101 11.5729L24.4382 11.5118L24.1857 11.9251L24.0896 11.4413Z" fill="#DE2910"/>
<path d="M20.1847 13.0199C20.2784 12.3909 20.6949 11.7713 21.2984 11.3619C21.9909 10.893 22.8501 10.7474 23.6544 10.9635L23.6813 10.8509C22.8459 10.627 21.9549 10.7779 21.2363 11.2645C20.5976 11.6975 20.1737 12.33 20.0738 13.0005L20.1847 13.0199Z" fill="#DE2910"/>
<path d="M20.0875 13.0141C24.9986 11.7846 26.7656 17.8211 22.9654 20.2455C23.4359 19.3397 23.051 18.5776 22.1769 18.252C21.1983 17.8875 20.891 16.3695 21.3261 15.626C22.041 14.4037 21.3763 13.0343 20.0875 13.0141Z" fill="white"/>
<path d="M22.7831 16.3302L22.7626 15.8482L23.1117 16.17L23.5655 15.9839L23.3545 16.4273L23.6551 16.7946L23.1757 16.7464L22.908 17.1594L22.8224 16.687L22.3565 16.5746L22.7831 16.3302Z" fill="#DE2910"/>
<path d="M20.092 13.0685C20.7153 12.9602 21.428 13.1655 21.9987 13.6172C22.6528 14.1357 23.0518 14.9168 23.0922 15.7594L23.2068 15.7497C23.1644 14.8748 22.7507 14.0648 22.0719 13.5266C21.4682 13.0485 20.7411 12.8402 20.0766 12.9557L20.092 13.0685Z" fill="#DE2910"/>
<path d="M19.9135 12.999C22.587 17.3442 17.4579 20.9096 14.0044 18.0025C15.0013 18.1753 15.5989 17.5695 15.6349 16.6279C15.6751 15.5737 17.0073 14.809 17.8407 14.9979C19.2107 15.308 20.2928 14.2453 19.9135 12.999Z" fill="white"/>
<path d="M17.6284 16.6169L18.0752 16.4482L17.8805 16.8835L18.1957 17.2627L17.7136 17.1967L17.4613 17.5994L17.3584 17.1233L16.8875 16.9933L17.3051 16.765L17.2668 16.282L17.6284 16.6169Z" fill="#DE2910"/>
<path d="M19.8647 13.0209C20.1592 13.587 20.1864 14.3361 19.9381 15.0247C19.6527 15.8143 19.0416 16.4395 18.2619 16.7387L18.3064 16.846C19.1159 16.5348 19.7496 15.8865 20.0459 15.0672C20.3088 14.3386 20.28 13.5747 19.9661 12.9712L19.8647 13.0209Z" fill="#DE2910"/>
<path d="M19.8705 12.9987C16.6228 16.8773 11.6577 13.0411 13.3075 8.8503C13.4582 9.85822 14.2157 10.2475 15.1128 9.9968C16.1171 9.71602 17.2549 10.7612 17.339 11.6173C17.4777 13.0244 18.8172 13.7397 19.8705 12.9987Z" fill="white"/>
<path d="M15.7514 11.9066L16.0509 12.2844L15.5796 12.2296L15.3215 12.6473L15.2321 12.1644L14.7732 12.0443L15.1894 11.801L15.1637 11.3093L15.5102 11.6411L15.9532 11.4577L15.7514 11.9066Z" fill="#DE2910"/>
<path d="M19.8255 12.9545C19.3859 13.4073 18.6906 13.6598 17.9656 13.6304C17.1342 13.5961 16.3549 13.2006 15.8292 12.5452L15.7423 12.6203C16.2887 13.3005 17.0967 13.7107 17.9595 13.7464C18.7266 13.7776 19.4353 13.5192 19.904 13.0364L19.8255 12.9545Z" fill="#DE2910"/>
</svg>
