<svg width="110" height="38" viewBox="0 0 110 38" fill="#000" xmlns="http://www.w3.org/2000/svg">
<path d="M0 8.75H4.85V29.2H0V37.3H25.95V29.2H21.05V8.75H25.95V0H0V8.75Z" />
<path d="M65.9003 29.1998V18.4498C65.9003 11.5998 60.9003 9.0998 54.7003 9.0998C50.3003 9.0998 46.9503 10.2998 44.0503 13.6498C43.8503 13.8998 43.6003 14.1998 43.3003 14.4498V8.7998H27.3003V16.9498H30.9503V29.1998H27.3003V37.3498H47.6003V29.1998H43.7503V22.1498C43.7503 19.1498 46.0003 16.9498 49.0003 16.9498C51.3503 16.9498 53.2003 18.0998 53.2003 20.6498V29.1498H49.4503V37.2998H69.3003V29.2998C69.3003 29.2498 69.2503 29.1998 69.2503 29.1498H65.9003V29.1998Z" />
<path d="M101.6 26.7999H91.05H90.7C90.7 29.7999 88.5 31.1999 86.05 31.1999C81.35 31.1999 80.95 27.2499 80.95 23.4999V23.3999C80.95 19.6499 81.3 15.6999 86.05 15.6999C89.75 15.6999 90.4 18.8999 90.5 21.9499L101.45 20.7499C100.3 9.5999 89.3 8.8999 86.55 8.8999C86.15 8.8999 85.95 8.8999 85.95 8.8999C76.9 8.8999 68 13.3499 68 23.4499C68 25.5999 68.4 27.4999 69.15 29.1499H69.2V29.2999C71.9 35.2999 78.9 37.9999 85.95 37.9999C91.7 37.9999 99.75 36.5999 101.55 27.7499L101.6 26.7999Z" />
<path d="M105.35 37.45C107.891 37.45 109.95 35.3905 109.95 32.85C109.95 30.3095 107.891 28.25 105.35 28.25C102.809 28.25 100.75 30.3095 100.75 32.85C100.75 35.3905 102.809 37.45 105.35 37.45Z" />
</svg>
