<svg width="20" height="20" viewBox="0 0 20 20" fill="#fff" xmlns="http://www.w3.org/2000/svg">
<path d="M10.3333 2C12.5975 2 12.88 2.00833 13.7683 2.05C14.6558 2.09167 15.26 2.23083 15.7917 2.4375C16.3417 2.64917 16.805 2.93583 17.2683 3.39833C17.6921 3.81491 18.02 4.31882 18.2292 4.875C18.435 5.40583 18.575 6.01083 18.6167 6.89833C18.6558 7.78667 18.6667 8.06917 18.6667 10.3333C18.6667 12.5975 18.6583 12.88 18.6167 13.7683C18.575 14.6558 18.435 15.26 18.2292 15.7917C18.0206 16.3481 17.6926 16.8522 17.2683 17.2683C16.8516 17.6919 16.3478 18.0198 15.7917 18.2292C15.2608 18.435 14.6558 18.575 13.7683 18.6167C12.88 18.6558 12.5975 18.6667 10.3333 18.6667C8.06917 18.6667 7.78667 18.6583 6.89833 18.6167C6.01083 18.575 5.40667 18.435 4.875 18.2292C4.31861 18.0204 3.81461 17.6925 3.39833 17.2683C2.97451 16.8518 2.64661 16.3479 2.4375 15.7917C2.23083 15.2608 2.09167 14.6558 2.05 13.7683C2.01083 12.88 2 12.5975 2 10.3333C2 8.06917 2.00833 7.78667 2.05 6.89833C2.09167 6.01 2.23083 5.40667 2.4375 4.875C2.64603 4.31848 2.974 3.81443 3.39833 3.39833C3.81473 2.97436 4.31869 2.64644 4.875 2.4375C5.40667 2.23083 6.01 2.09167 6.89833 2.05C7.78667 2.01083 8.06917 2 10.3333 2ZM10.3333 6.16667C9.22827 6.16667 8.16846 6.60565 7.38706 7.38706C6.60565 8.16846 6.16667 9.22826 6.16667 10.3333C6.16667 11.4384 6.60565 12.4982 7.38706 13.2796C8.16846 14.061 9.22827 14.5 10.3333 14.5C11.4384 14.5 12.4982 14.061 13.2796 13.2796C14.061 12.4982 14.5 11.4384 14.5 10.3333C14.5 9.22826 14.061 8.16846 13.2796 7.38706C12.4982 6.60565 11.4384 6.16667 10.3333 6.16667ZM15.75 5.95833C15.75 5.68207 15.6403 5.41711 15.4449 5.22176C15.2496 5.02641 14.9846 4.91667 14.7083 4.91667C14.4321 4.91667 14.1671 5.02641 13.9718 5.22176C13.7764 5.41711 13.6667 5.68207 13.6667 5.95833C13.6667 6.2346 13.7764 6.49955 13.9718 6.6949C14.1671 6.89025 14.4321 7 14.7083 7C14.9846 7 15.2496 6.89025 15.4449 6.6949C15.6403 6.49955 15.75 6.2346 15.75 5.95833ZM10.3333 7.83333C10.9964 7.83333 11.6323 8.09673 12.1011 8.56557C12.5699 9.03441 12.8333 9.67029 12.8333 10.3333C12.8333 10.9964 12.5699 11.6323 12.1011 12.1011C11.6323 12.5699 10.9964 12.8333 10.3333 12.8333C9.67029 12.8333 9.03441 12.5699 8.56557 12.1011C8.09673 11.6323 7.83333 10.9964 7.83333 10.3333C7.83333 9.67029 8.09673 9.03441 8.56557 8.56557C9.03441 8.09673 9.67029 7.83333 10.3333 7.83333Z" />
</svg>
