<svg width="24" height="24" viewBox="0 0 24 24" fill="#fff" xmlns="http://www.w3.org/2000/svg">
<path d="M22 0.75H2C1.30875 0.75 0.75 1.31 0.75 2V22C0.75 22.69 1.30875 23.25 2 23.25H22C22.6912 23.25 23.25 22.69 23.25 22V2C23.25 1.31 22.6912 0.75 22 0.75ZM7.42375 19.9212H4.08375V9.18375H7.42375V19.9212ZM5.75375 7.7175C4.68375 7.7175 3.81875 6.85 3.81875 5.7825C3.81875 4.715 4.6825 3.8475 5.75375 3.8475C6.82125 3.8475 7.68875 4.71375 7.68875 5.7825C7.68875 6.85125 6.82125 7.7175 5.75375 7.7175ZM19.9225 19.9212H16.5862V14.7C16.5862 13.455 16.5638 11.8538 14.8512 11.8538C13.1138 11.8538 12.85 13.2113 12.85 14.6125V19.9225H9.51625V9.185H12.7162V10.6525H12.7625C13.2062 9.80875 14.2962 8.91875 15.9175 8.91875C19.2975 8.91875 19.9212 11.1412 19.9212 14.0337V19.9212H19.9225Z" />
</svg>
