<svg width="116" height="35" viewBox="0 0 116 35" fill="#fff" xmlns="http://www.w3.org/2000/svg">
    <path d="M68.2673 24.4132C68.2673 25.5703 68.0368 26.6116 67.576 27.5372C67.1152 28.5207 66.2511 28.9835 64.8685 28.9835H61.2394C58.4743 28.9835 57.0918 27.4215 57.0918 24.3554V14.4051H79.9612L74.8919 9.08278H38.8308C38.1396 9.02493 37.3907 9.02493 36.6418 9.02493H25.0631C21.3763 9.02493 18.7265 9.66129 17.2287 10.8762C15.6734 12.091 14.9245 13.8265 14.9245 16.0827V17.6447C14.9245 20.0166 15.6734 21.81 17.1135 23.0248C18.5537 24.2397 20.6851 24.8182 23.5077 24.8182H35.8929C37.1603 24.8182 38.082 25.0496 38.658 25.5703C39.2341 26.0909 39.5221 26.7273 39.5221 27.4215C39.5221 28.8678 38.37 29.562 36.0658 29.562H28.4618H14.9821H13.542H10.9497H6.22607V34.9421H10.9497H13.542H24.5446H33.8191H36.8722C40.271 34.9421 42.8632 34.2479 44.649 32.9752C46.4348 31.6446 47.2988 29.6777 47.2988 27.0744V25.4546C47.2988 23.2562 46.4924 21.5786 44.8794 20.4794C43.2665 19.3802 40.559 18.8017 36.757 18.8017H24.9479C22.9893 18.8017 21.9524 18.0497 21.9524 16.4877C21.9524 15.0993 22.9893 14.4051 25.1207 14.4051H31.5149H46.8956H48.3933V25.3389C48.3933 27.3058 48.7966 29.0413 49.6031 30.4876C50.4095 31.9339 51.6193 33.0909 53.1746 33.8429C54.73 34.595 56.6309 34.9999 58.82 34.9999H64.2925C64.4653 34.9999 64.6381 34.9999 64.8685 34.9999L75.468 24.4132H68.2673Z"/>
    <path d="M97.5303 17.0081L113.602 0H102.312L90.9633 12.785L79.615 0H68.3243L84.3386 17.0081L66.3657 34.9998H78.5781L90.9633 21.1734L103.291 34.9998H115.503L97.5303 17.0081Z"/>
    <path d="M57.1492 0H48.5659V7.69416H57.1492V0Z"/>
    <path d="M6.16379 28.289H13.4797V0H7.02788L0 7.46275V7.69416H6.16379V28.289Z"/>
</svg>