<svg width="30" height="30" viewBox="0 0 30 30" fill="none" xmlns="http://www.w3.org/2000/svg">
<path d="M25 3.75H5C4.30875 3.75 3.75 4.31 3.75 5V25C3.75 25.69 4.30875 26.25 5 26.25H25C25.6912 26.25 26.25 25.69 26.25 25V5C26.25 4.31 25.6912 3.75 25 3.75ZM22.4425 9.08125L21.235 10.2375C21.1313 10.3162 21.08 10.4463 21.1025 10.5763V19.0775C21.08 19.2063 21.1313 19.3375 21.235 19.4163L22.4125 20.5737V20.8288H16.4862V20.5737L17.7075 19.3888C17.8288 19.2687 17.8287 19.2325 17.8287 19.05V12.1775L14.4338 20.7975H13.9738L10.0225 12.1775V17.955C9.99125 18.1975 10.0713 18.4425 10.2425 18.6188L11.8313 20.545V20.7987H7.32625V20.545L8.915 18.6188C9.085 18.4425 9.16 18.1962 9.12 17.955V11.275C9.13875 11.09 9.06875 10.9062 8.93 10.7812L7.5175 9.08125V8.8275H11.9L15.2875 16.2563L18.265 8.8275H22.4438V9.08125H22.4425Z" fill="#2D3344"/>
</svg>
