<svg width="30" height="30" viewBox="0 0 30 30" fill="none" xmlns="http://www.w3.org/2000/svg">
<path d="M6.875 18.75C8.0125 18.75 9.04125 18.3025 9.82125 17.5875L17.6463 22.0588C17.56 22.4025 17.5 22.755 17.5 23.125C17.5 25.5375 19.4625 27.5 21.875 27.5C24.2875 27.5 26.25 25.5375 26.25 23.125C26.25 20.7125 24.2875 18.75 21.875 18.75C20.7375 18.75 19.7088 19.1975 18.9288 19.9125L11.1038 15.4413C11.1825 15.1325 11.2325 14.8138 11.2388 14.4813L18.9275 10.0875C19.7088 10.8025 20.7375 11.25 21.875 11.25C24.2875 11.25 26.25 9.2875 26.25 6.875C26.25 4.4625 24.2875 2.5 21.875 2.5C19.4625 2.5 17.5 4.4625 17.5 6.875C17.5 7.245 17.56 7.5975 17.6463 7.94125L10.5413 12.0025C9.76 10.8 8.41125 10 6.875 10C4.4625 10 2.5 11.9625 2.5 14.375C2.5 16.7875 4.4625 18.75 6.875 18.75ZM21.875 21.25C22.9088 21.25 23.75 22.0913 23.75 23.125C23.75 24.1588 22.9088 25 21.875 25C20.8413 25 20 24.1588 20 23.125C20 22.0913 20.8413 21.25 21.875 21.25ZM21.875 5C22.9088 5 23.75 5.84125 23.75 6.875C23.75 7.90875 22.9088 8.75 21.875 8.75C20.8413 8.75 20 7.90875 20 6.875C20 5.84125 20.8413 5 21.875 5ZM6.875 12.5C7.90875 12.5 8.75 13.3413 8.75 14.375C8.75 15.4088 7.90875 16.25 6.875 16.25C5.84125 16.25 5 15.4088 5 14.375C5 13.3413 5.84125 12.5 6.875 12.5Z" fill="#5466EF"/>
</svg>
