<svg width="30" height="30" viewBox="0 0 30 30" fill="none" xmlns="http://www.w3.org/2000/svg">
<path d="M18.75 7.5C13.9262 7.5 10 11.425 10 16.25C10 21.075 13.9262 25 18.75 25C23.5737 25 27.5 21.075 27.5 16.25C27.5 11.425 23.5737 7.5 18.75 7.5ZM18.75 22.5C15.3037 22.5 12.5 19.6962 12.5 16.25C12.5 12.8038 15.3037 10 18.75 10C22.1962 10 25 12.8038 25 16.25C25 19.6962 22.1962 22.5 18.75 22.5Z" fill="#5466EF"/>
<path d="M17.5 12.5H20V17.5H17.5V12.5ZM16.25 2.5H21.25V5H16.25V2.5ZM3.75 10H8.75V12.5H3.75V10ZM3.75 20H8.75V22.5H3.75V20ZM2.5 15H7.4875V17.5H2.5V15Z" fill="#5466EF"/>
<path d="M24.3584 4.05176L27.2713 6.552L25.643 8.44902L22.7301 5.94877L24.3584 4.05176Z" fill="#5466EF"/>
</svg>
