<svg width="20" height="21" viewBox="0 0 20 21" fill="#fff" xmlns="http://www.w3.org/2000/svg">
<path d="M18.4683 5.4977C17.8321 5.77911 17.1574 5.96392 16.4666 6.04603C17.1947 5.61056 17.7397 4.92521 17.9999 4.1177C17.3166 4.52436 16.5674 4.80936 15.7866 4.96353C15.2621 4.40235 14.5669 4.03017 13.809 3.90485C13.0512 3.77953 12.2732 3.90811 11.596 4.27057C10.9187 4.63304 10.3802 5.2091 10.0642 5.90919C9.74812 6.60928 9.67221 7.39418 9.84825 8.14186C8.46251 8.07241 7.10686 7.7123 5.86933 7.08492C4.63179 6.45753 3.54003 5.5769 2.66492 4.5002C2.35516 5.03224 2.19238 5.63705 2.19326 6.2527C2.19326 7.46103 2.80826 8.52853 3.74326 9.15353C3.18993 9.13611 2.64878 8.98668 2.16492 8.7177V8.76103C2.16509 9.56578 2.44356 10.3457 2.95313 10.9686C3.46269 11.5914 4.17199 12.0189 4.96075 12.1785C4.4471 12.3177 3.90851 12.3382 3.38576 12.2385C3.60814 12.9312 4.04159 13.537 4.62541 13.9711C5.20924 14.4052 5.9142 14.6459 6.64159 14.6594C5.91866 15.2271 5.0909 15.6468 4.20566 15.8945C3.32041 16.1422 2.39503 16.2129 1.48242 16.1027C3.0755 17.1272 4.93 17.6711 6.82409 17.6694C13.2349 17.6694 16.7408 12.3585 16.7408 7.7527C16.7408 7.6027 16.7366 7.45103 16.7299 7.3027C17.4123 6.8095 18.0013 6.19855 18.4691 5.49853L18.4683 5.4977Z" />
</svg>
