<svg width="40" height="26" viewBox="0 0 40 26" fill="none" xmlns="http://www.w3.org/2000/svg">
<mask id="mask0" mask-type="alpha" maskUnits="userSpaceOnUse" x="0" y="0" width="40" height="26">
<rect width="40" height="26" rx="2" fill="#C4C4C4"/>
</mask>
<g mask="url(#mask0)">
<path d="M40 0H0V26H40V0Z" fill="#EAEAEA"/>
<path d="M40 0H0V2.88889H40V0Z" fill="#EF4D4D"/>
<path d="M40 5.77783H0V8.66672H40V5.77783Z" fill="#EF4D4D"/>
<path d="M40 11.5557H0V14.4446H40V11.5557Z" fill="#EF4D4D"/>
<path d="M40 17.3335H0V20.2224H40V17.3335Z" fill="#EF4D4D"/>
<path d="M40 23.1113H0V26.0002H40V23.1113Z" fill="#EF4D4D"/>
<path d="M20 0H0V13H20V0Z" fill="#469FCC"/>
<path d="M16.4286 2.88878C16.8231 2.88878 17.1429 2.56543 17.1429 2.16656C17.1429 1.76769 16.8231 1.44434 16.4286 1.44434C16.0342 1.44434 15.7144 1.76769 15.7144 2.16656C15.7144 2.56543 16.0342 2.88878 16.4286 2.88878Z" fill="white"/>
<path d="M13.5717 2.88878C13.9662 2.88878 14.286 2.56543 14.286 2.16656C14.286 1.76769 13.9662 1.44434 13.5717 1.44434C13.1772 1.44434 12.8574 1.76769 12.8574 2.16656C12.8574 2.56543 13.1772 2.88878 13.5717 2.88878Z" fill="white"/>
<path d="M10.7143 2.88878C11.1088 2.88878 11.4286 2.56543 11.4286 2.16656C11.4286 1.76769 11.1088 1.44434 10.7143 1.44434C10.3198 1.44434 10 1.76769 10 2.16656C10 2.56543 10.3198 2.88878 10.7143 2.88878Z" fill="white"/>
<path d="M7.85735 2.88878C8.25184 2.88878 8.57164 2.56543 8.57164 2.16656C8.57164 1.76769 8.25184 1.44434 7.85735 1.44434C7.46286 1.44434 7.14307 1.76769 7.14307 2.16656C7.14307 2.56543 7.46286 2.88878 7.85735 2.88878Z" fill="white"/>
<path d="M4.99993 2.88878C5.39442 2.88878 5.71422 2.56543 5.71422 2.16656C5.71422 1.76769 5.39442 1.44434 4.99993 1.44434C4.60544 1.44434 4.28564 1.76769 4.28564 2.16656C4.28564 2.56543 4.60544 2.88878 4.99993 2.88878Z" fill="white"/>
<path d="M2.143 2.88878C2.53749 2.88878 2.85728 2.56543 2.85728 2.16656C2.85728 1.76769 2.53749 1.44434 2.143 1.44434C1.74851 1.44434 1.42871 1.76769 1.42871 2.16656C1.42871 2.56543 1.74851 2.88878 2.143 2.88878Z" fill="white"/>
<path d="M14.9999 5.77794C15.3944 5.77794 15.7142 5.45459 15.7142 5.05572C15.7142 4.65685 15.3944 4.3335 14.9999 4.3335C14.6054 4.3335 14.2856 4.65685 14.2856 5.05572C14.2856 5.45459 14.6054 5.77794 14.9999 5.77794Z" fill="white"/>
<path d="M17.8574 5.77794C18.2518 5.77794 18.5716 5.45459 18.5716 5.05572C18.5716 4.65685 18.2518 4.3335 17.8574 4.3335C17.4629 4.3335 17.1431 4.65685 17.1431 5.05572C17.1431 5.45459 17.4629 5.77794 17.8574 5.77794Z" fill="white"/>
<path d="M17.8574 11.5558C18.2518 11.5558 18.5716 11.2324 18.5716 10.8336C18.5716 10.4347 18.2518 10.1113 17.8574 10.1113C17.4629 10.1113 17.1431 10.4347 17.1431 10.8336C17.1431 11.2324 17.4629 11.5558 17.8574 11.5558Z" fill="white"/>
<path d="M12.143 5.77794C12.5375 5.77794 12.8573 5.45459 12.8573 5.05572C12.8573 4.65685 12.5375 4.3335 12.143 4.3335C11.7485 4.3335 11.4287 4.65685 11.4287 5.05572C11.4287 5.45459 11.7485 5.77794 12.143 5.77794Z" fill="white"/>
<path d="M9.28557 5.77794C9.68006 5.77794 9.99986 5.45459 9.99986 5.05572C9.99986 4.65685 9.68006 4.3335 9.28557 4.3335C8.89109 4.3335 8.57129 4.65685 8.57129 5.05572C8.57129 5.45459 8.89109 5.77794 9.28557 5.77794Z" fill="white"/>
<path d="M6.42864 5.77794C6.82313 5.77794 7.14293 5.45459 7.14293 5.05572C7.14293 4.65685 6.82313 4.3335 6.42864 4.3335C6.03415 4.3335 5.71436 4.65685 5.71436 5.05572C5.71436 5.45459 6.03415 5.77794 6.42864 5.77794Z" fill="white"/>
<path d="M3.57171 5.77794C3.9662 5.77794 4.28599 5.45459 4.28599 5.05572C4.28599 4.65685 3.9662 4.3335 3.57171 4.3335C3.17722 4.3335 2.85742 4.65685 2.85742 5.05572C2.85742 5.45459 3.17722 5.77794 3.57171 5.77794Z" fill="white"/>
<path d="M16.4286 8.66661C16.8231 8.66661 17.1429 8.34326 17.1429 7.94439C17.1429 7.54552 16.8231 7.22217 16.4286 7.22217C16.0342 7.22217 15.7144 7.54552 15.7144 7.94439C15.7144 8.34326 16.0342 8.66661 16.4286 8.66661Z" fill="white"/>
<path d="M13.5717 8.66661C13.9662 8.66661 14.286 8.34326 14.286 7.94439C14.286 7.54552 13.9662 7.22217 13.5717 7.22217C13.1772 7.22217 12.8574 7.54552 12.8574 7.94439C12.8574 8.34326 13.1772 8.66661 13.5717 8.66661Z" fill="white"/>
<path d="M10.7143 8.66661C11.1088 8.66661 11.4286 8.34326 11.4286 7.94439C11.4286 7.54552 11.1088 7.22217 10.7143 7.22217C10.3198 7.22217 10 7.54552 10 7.94439C10 8.34326 10.3198 8.66661 10.7143 8.66661Z" fill="white"/>
<path d="M7.85735 8.66661C8.25184 8.66661 8.57164 8.34326 8.57164 7.94439C8.57164 7.54552 8.25184 7.22217 7.85735 7.22217C7.46286 7.22217 7.14307 7.54552 7.14307 7.94439C7.14307 8.34326 7.46286 8.66661 7.85735 8.66661Z" fill="white"/>
<path d="M4.99993 8.66661C5.39442 8.66661 5.71422 8.34326 5.71422 7.94439C5.71422 7.54552 5.39442 7.22217 4.99993 7.22217C4.60544 7.22217 4.28564 7.54552 4.28564 7.94439C4.28564 8.34326 4.60544 8.66661 4.99993 8.66661Z" fill="white"/>
<path d="M2.143 8.66661C2.53749 8.66661 2.85728 8.34326 2.85728 7.94439C2.85728 7.54552 2.53749 7.22217 2.143 7.22217C1.74851 7.22217 1.42871 7.54552 1.42871 7.94439C1.42871 8.34326 1.74851 8.66661 2.143 8.66661Z" fill="white"/>
<path d="M14.9999 11.5558C15.3944 11.5558 15.7142 11.2324 15.7142 10.8336C15.7142 10.4347 15.3944 10.1113 14.9999 10.1113C14.6054 10.1113 14.2856 10.4347 14.2856 10.8336C14.2856 11.2324 14.6054 11.5558 14.9999 11.5558Z" fill="white"/>
<path d="M12.143 11.5558C12.5375 11.5558 12.8573 11.2324 12.8573 10.8336C12.8573 10.4347 12.5375 10.1113 12.143 10.1113C11.7485 10.1113 11.4287 10.4347 11.4287 10.8336C11.4287 11.2324 11.7485 11.5558 12.143 11.5558Z" fill="white"/>
<path d="M9.28557 11.5558C9.68006 11.5558 9.99986 11.2324 9.99986 10.8336C9.99986 10.4347 9.68006 10.1113 9.28557 10.1113C8.89109 10.1113 8.57129 10.4347 8.57129 10.8336C8.57129 11.2324 8.89109 11.5558 9.28557 11.5558Z" fill="white"/>
<path d="M6.42864 11.5558C6.82313 11.5558 7.14293 11.2324 7.14293 10.8336C7.14293 10.4347 6.82313 10.1113 6.42864 10.1113C6.03415 10.1113 5.71436 10.4347 5.71436 10.8336C5.71436 11.2324 6.03415 11.5558 6.42864 11.5558Z" fill="white"/>
<path d="M3.57171 11.5558C3.9662 11.5558 4.28599 11.2324 4.28599 10.8336C4.28599 10.4347 3.9662 10.1113 3.57171 10.1113C3.17722 10.1113 2.85742 10.4347 2.85742 10.8336C2.85742 11.2324 3.17722 11.5558 3.57171 11.5558Z" fill="white"/>
</g>
</svg>
